<svg xmlns="http://www.w3.org/2000/svg" viewBox="0 0 486.71 510">
    <defs>
        <linearGradient id="favGrad" x1="88.87" y1="310.11" x2="486.71" y2="310.11" gradientUnits="userSpaceOnUse">
            <stop offset="0" stop-color="#2292cb"/>
            <stop offset="1" stop-color="#152f7b"/>
        </linearGradient>
    </defs>
    <circle fill="#2292cb" cx="115.03" cy="44.75" r="44.75"/>
    <circle fill="#2292cb" cx="186.05" cy="92.42" r="16.54"/>
    <path fill="#2292cb" d="M185.57,149.82A10.22,10.22,0,1,0,175.35,160,10.22,10.22,0,0,0,185.57,149.82Z"/>
    <circle fill="#2292cb" cx="183.26" cy="180.11" r="7.66"/>
    <path fill="#2292cb" d="M207.46,141.07a6.81,6.81,0,1,0-6.81,6.81A6.81,6.81,0,0,0,207.46,141.07Z"/>
    <circle fill="#2292cb" cx="156.87" cy="118.69" r="6.81"/>
    <path fill="url(#favGrad)" d="M286.88,110.28H249A28.75,28.75,0,0,0,220.26,139V313a65.14,65.14,0,0,0,65.14,65.14h9.69A38.21,38.21,0,0,1,333.3,416.3h0a38.21,38.21,0,0,1-38.21,38.21H263A116.68,116.68,0,0,1,146.35,337.83V140.72c0-15-11-28.42-25.92-29.85a28.75,28.75,0,0,0-31.56,28.61V356.31A153.64,153.64,0,0,0,242.51,510h44.37c110.36,0,199.83-89.47,199.83-199.83h0C486.71,199.75,397.24,110.28,286.88,110.28ZM424.75,310.12a16.54,16.54,0,1,1,16.54-16.54A16.54,16.54,0,0,1,424.75,310.12Z"/>
</svg>
